<svg width="32" height="40" viewBox="0 0 32 40" fill="none" xmlns="http://www.w3.org/2000/svg">
<path d="M16.1603 21.04C16.067 21.0266 15.947 21.0266 15.8403 21.04C13.4936 20.96 11.627 19.04 11.627 16.68C11.627 14.2666 13.5736 12.3066 16.0003 12.3066C18.4136 12.3066 20.3736 14.2666 20.3736 16.68C20.3603 19.04 18.507 20.96 16.1603 21.04Z" stroke="#1C1C1E" stroke-width="1.7" stroke-linecap="round" stroke-linejoin="round"/>
<path d="M24.986 29.8401C22.6127 32.0134 19.466 33.3334 15.9994 33.3334C12.5327 33.3334 9.38603 32.0134 7.0127 29.8401C7.14603 28.5867 7.94603 27.3601 9.3727 26.4001C13.026 23.9734 18.9994 23.9734 22.626 26.4001C24.0527 27.3601 24.8527 28.5867 24.986 29.8401Z" stroke="#1C1C1E" stroke-width="1.7" stroke-linecap="round" stroke-linejoin="round"/>
<path d="M16.0003 33.3332C23.3641 33.3332 29.3337 27.3636 29.3337 19.9998C29.3337 12.636 23.3641 6.6665 16.0003 6.6665C8.63653 6.6665 2.66699 12.636 2.66699 19.9998C2.66699 27.3636 8.63653 33.3332 16.0003 33.3332Z" stroke="#1C1C1E" stroke-width="1.7" stroke-linecap="round" stroke-linejoin="round"/>
</svg>
