<svg width="18" height="18" viewBox="0 0 18 18" fill="none" xmlns="http://www.w3.org/2000/svg">
<path d="M8.11923 8.74449C8.11923 9.06555 8.27976 9.35985 8.60081 9.62739C8.92186 9.89494 9.26967 10.1892 9.64424 10.5103C10.0188 10.8313 10.3666 11.222 10.6877 11.6821C11.0087 12.1423 11.1692 12.7256 11.1692 13.4319C11.1692 14.5235 10.6984 15.4866 9.7566 16.3214C8.70783 17.1989 7.28449 17.6377 5.48658 17.6377C4.9943 17.6377 4.48061 17.5842 3.94552 17.4772C3.41043 17.3701 2.90745 17.1936 2.43657 16.9474C1.96569 16.7013 1.58043 16.3749 1.28077 15.9682C0.981124 15.5615 0.831299 15.0586 0.831299 14.4593C0.831299 14.0098 0.949019 13.5496 1.18446 13.0787C1.4199 12.6507 1.75165 12.2814 2.17973 11.9711C2.6078 11.6607 3.10008 11.4199 3.65658 11.2487C4.70535 10.9277 5.74343 10.7564 6.7708 10.735C6.32132 10.1999 6.09659 9.69696 6.09659 9.22608C6.09659 9.05485 6.12869 8.90502 6.1929 8.7766C6.21431 8.73379 6.23571 8.66423 6.25711 8.56791C6.27852 8.4716 6.29992 8.40204 6.32132 8.35923C6.1929 8.35923 6.06983 8.36458 5.95211 8.37528C5.83439 8.38598 5.72202 8.39134 5.61501 8.39134C4.56623 8.39134 3.69938 8.05958 3.01447 7.39607C2.28674 6.73256 1.92288 5.89781 1.92288 4.89184C1.92288 3.95009 2.24394 3.10464 2.88605 2.35552C3.52815 1.58499 4.33079 1.10341 5.29395 0.910773C5.61501 0.846562 5.93071 0.793053 6.24106 0.750246C6.55141 0.707439 6.86712 0.686035 7.18817 0.686035H11.6508L10.2703 1.48867H8.88976C9.40345 1.83113 9.77801 2.2592 10.0134 2.77289C10.2703 3.32938 10.3987 3.90728 10.3987 4.50658C10.3987 4.99886 10.3238 5.44299 10.174 5.83895C10.0241 6.23492 9.83152 6.55062 9.59608 6.78606C9.25362 7.14993 8.92186 7.47633 8.60081 7.76528C8.27976 8.05423 8.11923 8.38063 8.11923 8.74449ZM6.61027 7.87765C7.27379 7.87765 7.75002 7.67431 8.03896 7.26765C8.32791 6.86098 8.47239 6.31518 8.47239 5.63027C8.47239 4.77412 8.25835 3.89658 7.83028 2.99763C7.61624 2.56955 7.32729 2.21639 6.96343 1.93815C6.59957 1.6599 6.1929 1.52078 5.74343 1.52078C5.12272 1.52078 4.64114 1.75622 4.29868 2.2271C3.95623 2.69797 3.785 3.25447 3.785 3.89658C3.785 4.28184 3.84386 4.70991 3.96158 5.18079C4.0793 5.65167 4.26123 6.0851 4.50737 6.48106C4.75351 6.87703 5.05316 7.20879 5.40632 7.47633C5.75948 7.74388 6.1608 7.87765 6.61027 7.87765ZM6.48185 16.803C6.86712 16.803 7.25238 16.7601 7.63765 16.6745C8.02291 16.5889 8.37072 16.4551 8.68107 16.2732C8.99143 16.0913 9.23757 15.8505 9.4195 15.5508C9.60143 15.2512 9.69239 14.8766 9.69239 14.4272C9.69239 14.2773 9.68169 14.1329 9.66029 13.9937C9.63888 13.8546 9.60678 13.7315 9.56397 13.6245C9.52116 13.5175 9.45695 13.3998 9.37134 13.2714C9.28572 13.1643 9.21616 13.068 9.16265 12.9824C9.10915 12.8968 9.01818 12.7898 8.88976 12.6614C8.80414 12.5971 8.70783 12.5115 8.60081 12.4045C8.558 12.3831 8.51519 12.351 8.47239 12.3082C8.42958 12.2654 8.36537 12.2119 8.27976 12.1477L7.9587 11.9229C7.89449 11.8801 7.78747 11.8052 7.63765 11.6982L7.31659 11.4735C7.27379 11.4735 7.20422 11.4681 7.10791 11.4574C7.01159 11.4467 6.90992 11.4413 6.80291 11.4413C6.07518 11.4413 5.35816 11.5484 4.65184 11.7624C4.09535 11.9336 3.62447 12.2065 3.23921 12.5811C2.85394 12.9557 2.66131 13.464 2.66131 14.1061C2.66131 14.577 2.77903 14.989 3.01447 15.3422C3.24991 15.6953 3.57096 15.9789 3.97763 16.193C4.72676 16.5996 5.5615 16.803 6.48185 16.803ZM17.783 3.28657V4.6029H15.1503V7.20343H13.8661V4.6029H11.2656V3.28657H13.8661V0.686035H15.1503V3.28657H17.783Z" fill="white"/>
</svg>
