<svg width="17" height="17" viewBox="0 0 17 17" fill="none" xmlns="http://www.w3.org/2000/svg">
<path d="M13.7335 15.6522H3.76069C2.38258 15.6522 1.25671 14.5263 1.25671 13.1482V3.17537C1.25671 1.79725 2.38258 0.671387 3.76069 0.671387H13.7335C15.1117 0.671387 16.2375 1.79725 16.2375 3.17537V13.1482C16.2375 14.5325 15.1178 15.6522 13.7335 15.6522Z" stroke="white"/>
<path d="M6.03114 10.8843C6.75711 11.6103 7.72302 12.0102 8.75045 12.0102C9.77788 12.0102 10.7376 11.6103 11.4698 10.8843C12.1957 10.1583 12.5956 9.19243 12.5956 8.165C12.5956 7.13757 12.1957 6.17166 11.4698 5.44569C10.7438 4.71972 9.77788 4.31982 8.75045 4.31982C7.72302 4.31982 6.75711 4.71972 6.03114 5.44569C5.30517 6.17166 4.90527 7.13757 4.90527 8.165C4.90527 9.19243 5.30517 10.1583 6.03114 10.8843Z" stroke="white"/>
<path d="M13.3448 4.19338C13.7525 4.19338 14.0831 3.86284 14.0831 3.45509C14.0831 3.04734 13.7525 2.7168 13.3448 2.7168C12.9371 2.7168 12.6065 3.04734 12.6065 3.45509C12.6065 3.86284 12.9371 4.19338 13.3448 4.19338Z" stroke="white"/>
</svg>
