<svg width="18" height="18" viewBox="0 0 18 18" fill="none" xmlns="http://www.w3.org/2000/svg">
<path d="M4.48947 6.43335H1.15839V17.056H4.48947V6.43335Z" stroke="white"/>
<path d="M13.5002 6.2032C13.3774 6.18785 13.247 6.18018 13.1165 6.1725C11.2514 6.09575 10.1999 7.20099 9.83145 7.67686C9.73167 7.80734 9.68562 7.8841 9.68562 7.8841V6.46417H6.50037V17.0868H9.68562H9.83145C9.83145 16.0046 9.83145 14.93 9.83145 13.8478C9.83145 13.2645 9.83145 12.6812 9.83145 12.0978C9.83145 11.3764 9.77772 10.6088 10.1385 9.94875C10.4455 9.39613 10.9981 9.11982 11.6198 9.11982C13.4619 9.11982 13.5002 10.7854 13.5002 10.9389C13.5002 10.9465 13.5002 10.9542 13.5002 10.9542V17.1328H16.8313V10.202C16.8313 7.83037 15.6263 6.43346 13.5002 6.2032Z" stroke="white"/>
<path d="M2.82382 5.05951C3.89204 5.05951 4.758 4.19355 4.758 3.12534C4.758 2.05712 3.89204 1.19116 2.82382 1.19116C1.7556 1.19116 0.889648 2.05712 0.889648 3.12534C0.889648 4.19355 1.7556 5.05951 2.82382 5.05951Z" stroke="white"/>
</svg>
