<svg width="16" height="20" viewBox="0 0 16 20" fill="none" xmlns="http://www.w3.org/2000/svg">
<path fill-rule="evenodd" clip-rule="evenodd" d="M6.93838 13.3679C7.49165 13.3858 7.99139 14.1175 9.4549 14.1175C12.2035 14.1354 14.0953 12.0293 14.6843 9.26294C16.7368 -0.321284 2.76201 -1.08874 1.33419 6.79995C0.995088 8.65612 1.54837 10.7978 2.99403 11.4939C4.10059 12.0293 4.17198 10.4944 3.83287 9.83406C2.33367 6.90704 4.13629 4.26558 6.49218 3.51597C8.7053 2.80207 10.2759 3.39104 11.4717 4.62253C13.0066 6.21098 12.3105 10.5301 10.4901 11.9044C9.84755 12.3863 8.6696 12.4934 8.06278 11.9222C6.81344 10.7621 8.741 8.29916 8.45543 6.49654C8.16987 4.71177 5.34993 4.97949 5.20715 7.6031C5.13576 8.94168 5.52841 9.33433 5.225 10.6729C4.74311 12.8146 3.27959 17.1873 4.31476 18.9007C5.83182 18.1868 6.58142 13.9033 6.93838 13.3679Z" stroke="white"/>
</svg>
